<svg xmlns="http://www.w3.org/2000/svg" viewBox="0 0 637 624"><defs><style>.cls-1{fill:#9cb0bf;}.cls-2{fill:#505963;}.cls-3{fill:#879baa;}.cls-4{fill:#636e78;}.cls-5{fill:#758790;}.cls-6{fill:#555f69;}</style></defs><g id="Vrstva_2" data-name="Vrstva 2"><rect class="cls-1" width="637" height="625"/></g><g id="Vrstva_4" data-name="Vrstva 4"><circle class="cls-2" cx="39.5" cy="38.5" r="16.5"/><rect class="cls-3" y="356" width="637" height="268"/></g><g id="Vrstva_6" data-name="Vrstva 6"><rect class="cls-4" x="108" y="356" width="10" height="268"/><rect class="cls-4" x="214" width="10" height="624"/><rect class="cls-4" x="318" width="10" height="624"/><rect class="cls-4" x="425" width="10" height="624"/><rect class="cls-4" x="531" width="10" height="624"/><rect class="cls-5" x="235" y="42" width="72" height="275"/><rect class="cls-5" x="340" y="42" width="72" height="275"/><rect class="cls-5" x="447" y="42" width="72" height="275"/><rect class="cls-5" x="554" y="42" width="72" height="275"/></g><g id="Vrstva_7" data-name="Vrstva 7"><circle class="cls-6" cx="250.5" cy="392.5" r="14.5"/><circle class="cls-6" cx="293.5" cy="392.5" r="14.5"/><circle class="cls-6" cx="250.5" cy="434.5" r="14.5"/><circle class="cls-6" cx="293.5" cy="434.5" r="14.5"/><circle class="cls-6" cx="250.5" cy="474.5" r="14.5"/><circle class="cls-6" cx="293.5" cy="474.5" r="14.5"/><circle class="cls-6" cx="250.5" cy="515.5" r="14.5"/><circle class="cls-6" cx="293.5" cy="516.5" r="14.5"/><circle class="cls-6" cx="250.5" cy="558.5" r="14.5"/><circle class="cls-6" cx="293.5" cy="558.5" r="14.5"/><circle class="cls-6" cx="250.5" cy="599.5" r="14.5"/><circle class="cls-6" cx="293.5" cy="600.5" r="14.5"/><circle class="cls-6" cx="355.5" cy="392.5" r="14.5"/><circle class="cls-6" cx="398.5" cy="392.5" r="14.5"/><circle class="cls-6" cx="355.5" cy="434.5" r="14.5"/><circle class="cls-6" cx="398.5" cy="434.5" r="14.5"/><circle class="cls-6" cx="355.5" cy="474.5" r="14.5"/><circle class="cls-6" cx="398.5" cy="474.5" r="14.5"/><circle class="cls-6" cx="355.5" cy="515.5" r="14.5"/><circle class="cls-6" cx="398.5" cy="516.5" r="14.5"/><circle class="cls-6" cx="355.5" cy="558.5" r="14.5"/><circle class="cls-6" cx="398.5" cy="558.5" r="14.5"/><circle class="cls-6" cx="355.5" cy="599.5" r="14.5"/><circle class="cls-6" cx="398.5" cy="600.5" r="14.5"/><circle class="cls-6" cx="461.5" cy="392.5" r="14.5"/><circle class="cls-6" cx="504.5" cy="392.5" r="14.5"/><circle class="cls-6" cx="461.5" cy="434.5" r="14.5"/><circle class="cls-6" cx="504.5" cy="434.5" r="14.5"/><circle class="cls-6" cx="461.5" cy="474.5" r="14.5"/><circle class="cls-6" cx="504.5" cy="474.5" r="14.5"/><circle class="cls-6" cx="461.5" cy="515.5" r="14.5"/><circle class="cls-6" cx="504.5" cy="516.5" r="14.5"/><circle class="cls-6" cx="461.5" cy="558.5" r="14.5"/><circle class="cls-6" cx="504.5" cy="558.5" r="14.5"/><circle class="cls-6" cx="461.5" cy="599.5" r="14.5"/><circle class="cls-6" cx="504.5" cy="600.5" r="14.5"/><circle class="cls-6" cx="568.5" cy="392.5" r="14.5"/><circle class="cls-6" cx="611.5" cy="392.5" r="14.5"/><circle class="cls-6" cx="568.5" cy="434.5" r="14.5"/><circle class="cls-6" cx="611.5" cy="434.5" r="14.5"/><circle class="cls-6" cx="568.5" cy="474.5" r="14.5"/><circle class="cls-6" cx="611.5" cy="474.5" r="14.5"/><circle class="cls-6" cx="568.5" cy="515.5" r="14.5"/><circle class="cls-6" cx="611.5" cy="516.5" r="14.5"/><circle class="cls-6" cx="568.5" cy="558.5" r="14.5"/><circle class="cls-6" cx="611.5" cy="558.5" r="14.5"/><circle class="cls-6" cx="568.5" cy="599.5" r="14.5"/><circle class="cls-6" cx="611.5" cy="600.5" r="14.5"/></g></svg>