<svg id="Vrstva_2" data-name="Vrstva 2" xmlns="http://www.w3.org/2000/svg" viewBox="0 0 687 482"><defs><style>.cls-1{fill:#fff;}.cls-2,.cls-3{fill:none;stroke-miterlimit:10;stroke-width:14px;}.cls-2{stroke:#fff;}.cls-3{stroke:#000;}</style></defs><rect width="252" height="431"/><rect x="267" width="125" height="431"/><rect x="407" width="122" height="431"/><rect x="547" width="140" height="431"/><rect class="cls-1" x="61" y="147" width="23" height="23"/><rect class="cls-1" x="61" y="193" width="23" height="23"/><rect class="cls-2" x="40" y="40" width="183" height="60" rx="5.01"/><rect class="cls-2" x="285" y="40" width="90" height="60" rx="5.01"/><rect class="cls-2" x="425" y="40" width="90" height="60" rx="5.01"/><rect class="cls-2" x="572" y="40" width="90" height="60" rx="5.01"/><circle class="cls-1" cx="309.5" cy="169.5" r="13.5"/><circle class="cls-1" cx="309.5" cy="215.5" r="13.5"/><circle class="cls-1" cx="309.5" cy="260.5" r="13.5"/><circle class="cls-1" cx="309.5" cy="303.5" r="13.5"/><circle class="cls-1" cx="447.5" cy="169.5" r="13.5"/><circle class="cls-1" cx="447.5" cy="215.5" r="13.5"/><circle class="cls-1" cx="447.5" cy="260.5" r="13.5"/><circle class="cls-1" cx="447.5" cy="303.5" r="13.5"/><circle class="cls-1" cx="589.5" cy="169.5" r="13.5"/><circle class="cls-1" cx="589.5" cy="215.5" r="13.5"/><circle class="cls-1" cx="589.5" cy="260.5" r="13.5"/><circle class="cls-1" cx="589.5" cy="303.5" r="13.5"/><path class="cls-3" d="M203,421c10.36,23.61,35.83,49.52,61,51,27.88,1.63,56.35-24.72,68-51"/><path class="cls-3" d="M332,421c10.36,23.61,38.35,49.45,63.52,50.92C423.4,473.56,455.35,447.28,467,421"/><path class="cls-3" d="M466.52,430.92c10.36,23.61,32.83,39.53,58,41C552.4,473.56,583.35,451.28,595,425"/></svg>